<?xml version="1.0" standalone="no"?>
<!-- Generator: Adobe Fireworks 10, Export SVG Extension by Aaron Beall (http://fireworks.abeall.com) . Version: 0.6.1  -->
<!DOCTYPE svg PUBLIC "-//W3C//DTD SVG 1.1//EN" "http://www.w3.org/Graphics/SVG/1.1/DTD/svg11.dtd">
<svg id="Untitled-Page%201" viewBox="0 0 219 44" style="background-color:#ffffff00" version="1.1"
	xmlns="http://www.w3.org/2000/svg" xmlns:xlink="http://www.w3.org/1999/xlink" xml:space="preserve"
	x="0px" y="0px" width="219px" height="44px"
>
	<g id="Layer%201">
		<g>
			<g>
				<path d="M 17.8725 15.5522 C 17.8725 20.9471 14.3789 25.2255 8.8627 25.2255 C 3.1259 25.2255 0 20.8355 0 15.3661 C 0 9.8596 3.1627 5.5809 8.8627 5.5809 C 14.7099 5.5809 17.8725 9.9712 17.8725 15.5522 ZM 5.8103 14.8081 C 5.8103 16.966 5.7736 21.5796 8.8627 21.5796 C 11.915 21.5796 12.0621 17.8589 12.0621 15.5894 C 12.0621 14.1012 11.9885 12.3152 11.4738 10.9015 C 11.0324 9.6737 10.1497 9.19 8.8994 9.19 C 5.9943 9.19 5.8103 12.6501 5.8103 14.8081 Z" fill="#ffffff"/>
				<path d="M 31.2948 11.6084 C 30.8167 9.8224 29.4193 9.0783 27.654 9.0783 C 26.5509 9.0783 24.8592 9.376 24.8592 10.7525 C 24.8592 14.2871 36.0756 10.2689 36.0756 18.7892 C 36.0756 20.7611 35.1563 22.5096 33.5749 23.6628 C 31.8832 24.8536 29.8239 25.2255 27.7645 25.2255 C 23.8663 25.2255 20.2255 23.8863 19.2327 19.6447 L 23.903 18.9751 C 24.2708 20.9099 26.2935 21.5052 28.0218 21.5052 C 29.0515 21.5052 31.2948 21.133 31.2948 19.7194 C 31.2948 18.4543 30.1916 18.231 29.1986 18.1194 C 27.9115 17.9706 24.8224 17.4125 23.6456 17.0032 C 21.4392 16.2219 19.9682 14.2871 19.9682 11.9059 C 19.9682 7.2553 23.9766 5.5809 27.9483 5.5809 C 31.6258 5.5809 34.0162 6.9948 35.3033 10.5294 L 31.2948 11.6084 Z" fill="#ffffff"/>
				<path d="M 37.4359 10.2689 L 37.4359 5.9158 L 40.7089 5.9158 L 41.187 0.3721 L 45.8941 0 L 45.8941 5.9158 L 49.9026 5.9158 L 49.9026 10.2689 L 45.8941 10.2689 L 45.8941 17.7845 C 45.8941 19.9797 45.8941 20.8727 48.5052 20.7611 L 50.1968 20.6867 L 50.1968 24.8163 L 49.829 24.8908 C 48.7993 25.0395 47.8065 25.2255 46.8135 25.2255 C 45.2689 25.2255 43.2096 25.0023 41.996 23.9979 C 40.4882 22.7327 40.4882 20.4633 40.4882 18.6031 L 40.4882 10.2689 L 37.4359 10.2689 Z" fill="#ffffff"/>
				<path d="M 63.6559 11.6084 C 63.1777 9.8224 61.7804 9.0783 60.0151 9.0783 C 58.9119 9.0783 57.2202 9.376 57.2202 10.7525 C 57.2202 14.2871 68.4366 10.2689 68.4366 18.7892 C 68.4366 20.7611 67.5173 22.5096 65.9358 23.6628 C 64.2442 24.8536 62.1848 25.2255 60.1255 25.2255 C 56.2274 25.2255 52.5865 23.8863 51.5937 19.6447 L 56.2641 18.9751 C 56.6319 20.9099 58.6545 21.5052 60.3828 21.5052 C 61.4126 21.5052 63.6559 21.133 63.6559 19.7194 C 63.6559 18.4543 62.5526 18.231 61.5596 18.1194 C 60.2725 17.9706 57.1835 17.4125 56.0067 17.0032 C 53.8002 16.2219 52.3292 14.2871 52.3292 11.9059 C 52.3292 7.2553 56.3376 5.5809 60.3093 5.5809 C 63.9869 5.5809 66.3773 6.9948 67.6643 10.5294 L 63.6559 11.6084 Z" fill="#ffffff"/>
				<path d="M 76.3796 16.3336 L 76.3429 17.2637 C 76.3429 19.4959 77.5932 21.3193 79.9468 21.3193 C 81.6018 21.3193 83.2566 20.0913 83.2566 18.3427 L 88.258 18.7148 C 88.258 19.6447 86.0882 25.2255 79.7629 25.2255 C 74.1733 25.2255 70.5324 21.2821 70.5324 15.6638 C 70.5324 10.0829 73.8055 5.5809 79.6159 5.5809 C 82.2269 5.5809 84.9114 6.7715 86.456 8.9295 C 88.0005 11.0875 88.4051 13.7663 88.3683 16.3336 L 76.3796 16.3336 ZM 82.9624 13.0966 C 82.8521 11.0502 82.1901 9.1527 79.8365 9.1527 C 77.4462 9.1527 76.5268 10.9386 76.3429 13.0966 L 82.9624 13.0966 Z" fill="#ffffff"/>
				<path d="M 96.2375 16.3336 L 96.2007 17.2637 C 96.2007 19.4959 97.4511 21.3193 99.8048 21.3193 C 101.4597 21.3193 103.1145 20.0913 103.1145 18.3427 L 108.1158 18.7148 C 108.1158 19.6447 105.946 25.2255 99.6207 25.2255 C 94.0311 25.2255 90.3903 21.2821 90.3903 15.6638 C 90.3903 10.0829 93.6634 5.5809 99.4737 5.5809 C 102.0849 5.5809 104.7693 6.7715 106.3138 8.9295 C 107.8585 11.0875 108.2628 13.7663 108.226 16.3336 L 96.2375 16.3336 ZM 102.8204 13.0966 C 102.7098 11.0502 102.0481 9.1527 99.6945 9.1527 C 97.3041 9.1527 96.3847 10.9386 96.2007 13.0966 L 102.8204 13.0966 Z" fill="#ffffff"/>
			</g>
			<g>
				<path d="M 6.1543 34.0125 C 5.821 33.5756 5.167 33.251 4.55 33.251 C 3.8343 33.251 3.0076 33.6006 3.0076 34.4618 C 3.0076 35.2733 3.6863 35.5105 4.6735 35.8227 C 5.7965 36.1724 7.2278 36.6717 7.2278 38.4069 C 7.2278 40.3046 5.7594 41.2286 4.0441 41.2286 C 2.9089 41.2286 1.7365 40.7917 1.0456 39.9677 L 2.1561 38.9191 C 2.588 39.5181 3.3777 39.8928 4.0688 39.8928 C 4.7968 39.8928 5.6484 39.5306 5.6484 38.5819 C 5.6484 37.6579 4.7352 37.3958 3.6369 37.0464 C 2.5757 36.7092 1.4281 36.1848 1.4281 34.5369 C 1.4281 32.7391 3.0446 31.9401 4.624 31.9401 C 5.5002 31.9401 6.4997 32.2523 7.1661 32.8888 L 6.1543 34.0125 Z" fill="#ffffff"/>
				<path d="M 12.7572 36.6717 C 12.5226 36.3346 12.0167 36.0848 11.5355 36.0848 C 10.4496 36.0848 9.9066 37.0714 9.9066 38.0076 C 9.9066 38.9438 10.4619 39.9303 11.5848 39.9303 C 12.0414 39.9303 12.5473 39.7428 12.8312 39.3934 L 13.7567 40.3421 C 13.2631 40.8789 12.4486 41.1786 11.5724 41.1786 C 9.8203 41.1786 8.3642 40.0049 8.3642 38.0076 C 8.3642 36.0598 9.7956 34.8365 11.5355 34.8365 C 12.3992 34.8365 13.3 35.1862 13.769 35.7727 L 12.7572 36.6717 Z" fill="#ffffff"/>
				<path d="M 20.2113 37.2585 L 20.2113 41.0039 L 18.7305 41.0039 L 18.7305 37.7079 C 18.7305 36.9963 18.5824 36.1223 17.6322 36.1223 C 16.6943 36.1223 16.2379 36.9339 16.2379 37.7329 L 16.2379 41.0039 L 14.757 41.0039 L 14.757 31.5654 L 16.2379 31.5654 L 16.2379 35.8477 L 16.2625 35.8477 C 16.497 35.3483 17.151 34.8365 18.0271 34.8365 C 19.5697 34.8365 20.2113 36.0349 20.2113 37.2585 Z" fill="#ffffff"/>
				<path d="M 21.9647 31.5654 L 23.4455 31.5654 L 23.4455 41.0039 L 21.9647 41.0039 L 21.9647 31.5654 Z" fill="#ffffff"/>
				<path d="M 30.8868 38.4819 L 26.3829 38.4819 C 26.4445 39.3309 27.2096 39.9552 28.0735 39.9552 C 28.8138 39.9552 29.3074 39.6556 29.6406 39.1812 L 30.6277 39.9802 C 30.0479 40.7792 29.2087 41.1786 28.0858 41.1786 C 26.2595 41.1786 24.9021 39.9927 24.9021 38.045 C 24.9021 36.1099 26.2472 34.8365 28.0364 34.8365 C 29.6901 34.8365 30.8992 35.9227 30.8992 38.0826 C 30.8992 38.2197 30.8992 38.3447 30.8868 38.4819 ZM 29.4185 37.4082 C 29.4185 36.6342 28.9866 35.9602 28.024 35.9602 C 27.1479 35.9602 26.4445 36.5717 26.3829 37.4082 L 29.4185 37.4082 Z" fill="#ffffff"/>
				<path d="M 35.5772 36.6092 C 35.3181 36.2599 34.8243 35.9602 34.2813 35.9602 C 33.8125 35.9602 33.3313 36.1349 33.3313 36.6092 C 33.3313 37.0714 33.7878 37.196 34.6146 37.3958 C 35.4907 37.6079 36.5272 38.0076 36.5272 39.1812 C 36.5272 40.6418 35.3549 41.1786 34.0593 41.1786 C 33.1461 41.1786 32.196 40.8289 31.6284 40.1924 L 32.6031 39.2684 C 32.9241 39.6931 33.4794 40.0174 34.1211 40.0174 C 34.5528 40.0174 35.0711 39.8427 35.0711 39.3059 C 35.0711 38.8066 34.6146 38.6569 33.7138 38.4444 C 32.8376 38.2322 31.9615 37.8704 31.9615 36.7467 C 31.9615 35.4108 33.1461 34.8365 34.3184 34.8365 C 35.1699 34.8365 36.0584 35.1362 36.5396 35.7477 L 35.5772 36.6092 Z" fill="#ffffff"/>
				<path d="M 36.9723 35.0112 L 38.5763 35.0112 L 39.8104 39.3059 L 39.8351 39.3059 L 41.106 35.0112 L 42.6855 35.0112 L 43.9689 39.3059 L 43.9936 39.3059 L 45.2523 35.0112 L 46.7948 35.0112 L 44.7464 41.0039 L 43.2409 41.0039 L 41.8958 36.8089 L 41.8711 36.8089 L 40.5385 41.0039 L 39.033 41.0039 L 36.9723 35.0112 Z" fill="#ffffff"/>
				<path d="M 48.4868 32.0773 C 49.0297 32.0773 49.4492 32.4644 49.4492 32.9763 C 49.4492 33.4882 49.0297 33.8753 48.4868 33.8753 C 47.9439 33.8753 47.549 33.4507 47.549 32.9763 C 47.549 32.502 47.9439 32.0773 48.4868 32.0773 ZM 47.7587 35.0112 L 49.2395 35.0112 L 49.2395 41.0039 L 47.7587 41.0039 L 47.7587 35.0112 Z" fill="#ffffff"/>
				<path d="M 57.0635 35.0112 L 57.0635 40.4671 C 57.0635 42.627 56.0268 44 53.7194 44 C 52.7568 44 51.5475 43.6507 50.7824 43.0139 L 51.6339 41.8529 C 52.2014 42.402 52.9666 42.7017 53.707 42.7017 C 55.1384 42.7017 55.5827 41.8279 55.5827 40.6418 L 55.5827 40.2049 L 55.558 40.2049 C 55.126 40.7917 54.435 41.1036 53.6207 41.1036 C 51.8437 41.1036 50.6961 39.6806 50.6961 37.9825 C 50.6961 36.2473 51.8066 34.8365 53.5959 34.8365 C 54.4228 34.8365 55.2001 35.1862 55.632 35.9102 L 55.6566 35.9102 L 55.6566 35.0112 L 57.0635 35.0112 ZM 52.2014 37.9701 C 52.2014 38.9191 52.8309 39.8678 53.8922 39.8678 C 54.9903 39.8678 55.6566 38.9688 55.6566 37.9701 C 55.6566 36.9339 54.978 36.0598 53.9045 36.0598 C 52.8309 36.0598 52.2014 36.9089 52.2014 37.9701 Z" fill="#ffffff"/>
				<path d="M 61.4082 38.5694 L 58.4466 38.5694 L 58.4466 37.296 L 61.4082 37.296 L 61.4082 38.5694 Z" fill="#ffffff"/>
				<path d="M 62.8649 32.1648 L 64.4197 32.1648 L 64.4197 35.7355 L 68.5043 35.7355 L 68.5043 32.1648 L 70.059 32.1648 L 70.059 41.0039 L 68.5043 41.0039 L 68.5043 37.0836 L 64.4197 37.0836 L 64.4197 41.0039 L 62.8649 41.0039 L 62.8649 32.1648 Z" fill="#ffffff"/>
				<path d="M 74.7867 34.8365 C 76.5761 34.8365 78.0075 36.0974 78.0075 37.9825 C 78.0075 39.8678 76.5761 41.1786 74.7867 41.1786 C 72.9975 41.1786 71.5661 39.8678 71.5661 37.9825 C 71.5661 36.0974 72.9975 34.8365 74.7867 34.8365 ZM 74.7867 39.9303 C 75.9592 39.9303 76.502 38.9191 76.502 37.9825 C 76.502 37.0464 75.9592 36.0598 74.7867 36.0598 C 73.6144 36.0598 73.0715 37.0464 73.0715 37.9825 C 73.0715 38.9191 73.6144 39.9303 74.7867 39.9303 Z" fill="#ffffff"/>
				<path d="M 79.4647 31.5654 L 80.9455 31.5654 L 80.9455 41.0039 L 79.4647 41.0039 L 79.4647 31.5654 Z" fill="#ffffff"/>
				<path d="M 85.993 36.6092 C 85.7339 36.2599 85.2402 35.9602 84.6972 35.9602 C 84.2284 35.9602 83.7472 36.1349 83.7472 36.6092 C 83.7472 37.0714 84.2036 37.196 85.0305 37.3958 C 85.9066 37.6079 86.9431 38.0076 86.9431 39.1812 C 86.9431 40.6418 85.7708 41.1786 84.4751 41.1786 C 83.562 41.1786 82.6118 40.8289 82.0443 40.1924 L 83.019 39.2684 C 83.3399 39.6931 83.8953 40.0174 84.5369 40.0174 C 84.9687 40.0174 85.487 39.8427 85.487 39.3059 C 85.487 38.8066 85.0305 38.6569 84.1297 38.4444 C 83.2534 38.2322 82.3773 37.8704 82.3773 36.7467 C 82.3773 35.4108 83.562 34.8365 84.7343 34.8365 C 85.5858 34.8365 86.4742 35.1362 86.9554 35.7477 L 85.993 36.6092 Z" fill="#ffffff"/>
				<path d="M 87.3758 36.2098 L 87.3758 35.0112 L 88.4123 35.0112 L 88.4123 33.276 L 89.8684 33.276 L 89.8684 35.0112 L 91.3492 35.0112 L 91.3492 36.2098 L 89.8684 36.2098 L 89.8684 38.9937 C 89.8684 39.5306 89.9918 39.9178 90.6458 39.9178 C 90.8431 39.9178 91.1023 39.8802 91.2751 39.7928 L 91.3246 40.9665 C 91.0654 41.0664 90.6705 41.1286 90.3373 41.1286 C 88.7701 41.1286 88.4123 40.1549 88.4123 39.0062 L 88.4123 36.2098 L 87.3758 36.2098 Z" fill="#ffffff"/>
				<path d="M 98.0626 38.4819 L 93.5587 38.4819 C 93.6203 39.3309 94.3853 39.9552 95.2492 39.9552 C 95.9895 39.9552 96.4831 39.6556 96.8163 39.1812 L 97.8035 39.9802 C 97.2236 40.7792 96.3844 41.1786 95.2615 41.1786 C 93.4352 41.1786 92.0779 39.9927 92.0779 38.045 C 92.0779 36.1099 93.4229 34.8365 95.2122 34.8365 C 96.8657 34.8365 98.0749 35.9227 98.0749 38.0826 C 98.0749 38.2197 98.0749 38.3447 98.0626 38.4819 ZM 96.5942 37.4082 C 96.5942 36.6342 96.1623 35.9602 95.1998 35.9602 C 94.3237 35.9602 93.6203 36.5717 93.5587 37.4082 L 96.5942 37.4082 Z" fill="#ffffff"/>
				<path d="M 100.2603 32.0773 C 100.8031 32.0773 101.2227 32.4644 101.2227 32.9763 C 101.2227 33.4882 100.8031 33.8753 100.2603 33.8753 C 99.7173 33.8753 99.3224 33.4507 99.3224 32.9763 C 99.3224 32.502 99.7173 32.0773 100.2603 32.0773 ZM 99.5321 35.0112 L 101.0129 35.0112 L 101.0129 41.0039 L 99.5321 41.0039 L 99.5321 35.0112 Z" fill="#ffffff"/>
				<path d="M 102.815 35.0112 L 104.2218 35.0112 L 104.2218 35.9727 L 104.2464 35.9727 C 104.5055 35.3733 105.209 34.8365 106.085 34.8365 C 107.6276 34.8365 108.2691 36.0349 108.2691 37.2585 L 108.2691 41.0039 L 106.7885 41.0039 L 106.7885 37.6829 C 106.7885 36.9714 106.628 36.0848 105.6778 36.0848 C 104.7401 36.0848 104.2958 36.9089 104.2958 37.7079 L 104.2958 41.0039 L 102.815 41.0039 L 102.815 35.0112 Z" fill="#ffffff"/>
				<path d="M 110.7134 39.1562 C 111.244 39.1562 111.7006 39.5681 111.7006 40.1049 C 111.7006 40.6418 111.2564 41.0786 110.7134 41.0786 C 110.1951 41.0786 109.7263 40.6667 109.7263 40.1299 C 109.7263 39.5931 110.1704 39.1562 110.7134 39.1562 Z" fill="#ffffff"/>
				<path d="M 116.1932 32.1648 L 119.0931 32.1648 C 121.2773 32.1648 123.6837 33.6378 123.6837 36.5842 C 123.6837 39.5306 121.2773 41.0039 119.0931 41.0039 L 116.1932 41.0039 L 116.1932 32.1648 ZM 117.0818 40.2049 L 118.8463 40.2049 C 121.4747 40.2049 122.7457 38.4069 122.7457 36.5842 C 122.7457 34.7615 121.4747 32.9638 118.8463 32.9638 L 117.0818 32.9638 L 117.0818 40.2049 Z" fill="#ffffff"/>
				<path d="M 130.7311 38.3072 L 125.9432 38.3072 C 125.968 39.4806 126.8685 40.4296 128.0533 40.4296 C 128.9172 40.4296 129.5835 39.9427 129.9043 39.4184 L 130.5335 39.9178 C 129.8549 40.7917 129.0034 41.1536 128.0533 41.1536 C 126.338 41.1536 125.067 39.8427 125.067 38.0826 C 125.067 36.322 126.338 35.0112 127.9792 35.0112 C 129.7931 35.0112 130.7435 36.3095 130.7435 37.9076 C 130.7435 38.0201 130.7435 38.1572 130.7311 38.3072 ZM 129.892 37.6329 C 129.8425 36.5345 129.1763 35.723 127.9792 35.723 C 126.8562 35.723 126.0294 36.6342 125.9556 37.6329 L 129.892 37.6329 Z" fill="#ffffff"/>
				<path d="M 132.4969 35.1612 L 133.299 35.1612 C 133.3237 35.4733 133.3481 35.9102 133.3481 36.1599 L 133.3728 36.1599 C 133.6937 35.4855 134.4094 35.0112 135.2238 35.0112 C 135.4338 35.0112 135.6064 35.0237 135.7791 35.0737 L 135.6682 35.8727 C 135.5694 35.8352 135.2979 35.7977 135.0758 35.7977 C 134.1873 35.7977 133.3851 36.447 133.3851 38.0076 L 133.3851 41.0039 L 132.5463 41.0039 L 132.5463 36.447 C 132.5463 36.1349 132.5339 35.5605 132.4969 35.1612 Z" fill="#ffffff"/>
				<path d="M 145.3192 38.3072 L 140.5312 38.3072 C 140.5559 39.4806 141.4565 40.4296 142.6413 40.4296 C 143.5052 40.4296 144.1714 39.9427 144.4923 39.4184 L 145.1215 39.9178 C 144.4429 40.7917 143.5914 41.1536 142.6413 41.1536 C 140.9259 41.1536 139.655 39.8427 139.655 38.0826 C 139.655 36.322 140.9259 35.0112 142.5672 35.0112 C 144.3811 35.0112 145.3314 36.3095 145.3314 37.9076 C 145.3314 38.0201 145.3314 38.1572 145.3192 38.3072 ZM 144.48 37.6329 C 144.4305 36.5345 143.7643 35.723 142.5672 35.723 C 141.4442 35.723 140.6174 36.6342 140.5435 37.6329 L 144.48 37.6329 Z" fill="#ffffff"/>
				<path d="M 151.2927 36.497 C 151.0212 36.0474 150.4412 35.723 149.8117 35.723 C 148.4667 35.723 147.6031 36.7467 147.6031 38.0826 C 147.6031 39.4059 148.4546 40.4296 149.7994 40.4296 C 150.5277 40.4296 151.0336 40.1174 151.3669 39.6681 L 151.996 40.1424 C 151.5024 40.7543 150.7992 41.1536 149.7994 41.1536 C 147.9361 41.1536 146.7145 39.8427 146.7145 38.0826 C 146.7145 36.322 147.9361 35.0112 149.7994 35.0112 C 150.5771 35.0112 151.4531 35.3483 151.9466 36.0224 L 151.2927 36.497 Z" fill="#ffffff"/>
				<path d="M 154.1935 36.1223 C 154.5021 35.4484 155.3165 35.0112 156.131 35.0112 C 157.5994 35.0112 158.3276 35.9727 158.3276 37.4207 L 158.3276 41.0039 L 157.4885 41.0039 L 157.4885 37.7704 C 157.4885 36.5467 157.1304 35.723 155.9213 35.723 C 155.0327 35.723 154.1691 36.447 154.1691 38.0076 L 154.1691 41.0039 L 153.33 41.0039 L 153.33 31.5654 L 154.1691 31.5654 L 154.1691 36.1223 L 154.1935 36.1223 Z" fill="#ffffff"/>
				<path d="M 163.1041 35.8727 L 161.4752 35.8727 L 161.4752 39.2809 C 161.4752 40.1549 161.8331 40.3546 162.3391 40.3546 C 162.5735 40.3546 162.845 40.2796 163.067 40.1674 L 163.1041 40.904 C 162.8079 41.0164 162.4993 41.0786 162.1169 41.0786 C 161.4999 41.0786 160.636 40.804 160.636 39.5181 L 160.636 35.8727 L 159.4391 35.8727 L 159.4391 35.1612 L 160.636 35.1612 L 160.636 33.5131 L 161.4752 33.5131 L 161.4752 35.1612 L 163.1041 35.1612 L 163.1041 35.8727 Z" fill="#ffffff"/>
				<path d="M 169.6572 38.3072 L 164.8693 38.3072 C 164.8939 39.4806 165.7949 40.4296 166.9793 40.4296 C 167.8432 40.4296 168.5095 39.9427 168.8304 39.4184 L 169.4598 39.9178 C 168.7809 40.7917 167.9294 41.1536 166.9793 41.1536 C 165.2643 41.1536 163.993 39.8427 163.993 38.0826 C 163.993 36.322 165.2643 35.0112 166.9052 35.0112 C 168.7192 35.0112 169.6695 36.3095 169.6695 37.9076 C 169.6695 38.0201 169.6695 38.1572 169.6572 38.3072 ZM 168.818 37.6329 C 168.7686 36.5345 168.1024 35.723 166.9052 35.723 C 165.7825 35.723 164.9557 36.6342 164.8816 37.6329 L 168.818 37.6329 Z" fill="#ffffff"/>
				<path d="M 180.8017 39.6931 L 180.8264 39.6931 L 180.8264 32.1648 L 181.715 32.1648 L 181.715 41.0039 L 180.6043 41.0039 L 175.5201 33.4006 L 175.4955 33.4006 L 175.4955 41.0039 L 174.6072 41.0039 L 174.6072 32.1648 L 175.7176 32.1648 L 180.8017 39.6931 Z" fill="#ffffff"/>
				<path d="M 186.64 41.1536 C 184.8505 41.1536 183.5672 39.8427 183.5672 38.0826 C 183.5672 36.322 184.8505 35.0112 186.64 35.0112 C 188.4416 35.0112 189.7249 36.322 189.7249 38.0826 C 189.7249 39.8427 188.4416 41.1536 186.64 41.1536 ZM 186.64 35.723 C 185.3073 35.723 184.4557 36.7717 184.4557 38.0826 C 184.4557 39.3934 185.3073 40.4296 186.64 40.4296 C 187.9851 40.4296 188.8363 39.3934 188.8363 38.0826 C 188.8363 36.7717 187.9851 35.723 186.64 35.723 Z" fill="#ffffff"/>
				<path d="M 191.4782 35.1612 L 192.2804 35.1612 C 192.3051 35.4733 192.3298 35.9102 192.3298 36.1599 L 192.3545 36.1599 C 192.675 35.4855 193.391 35.0112 194.2055 35.0112 C 194.4152 35.0112 194.5879 35.0237 194.7608 35.0737 L 194.6496 35.8727 C 194.5508 35.8352 194.2793 35.7977 194.0573 35.7977 C 193.1689 35.7977 192.3669 36.447 192.3669 38.0076 L 192.3669 41.0039 L 191.5277 41.0039 L 191.5277 36.447 C 191.5277 36.1349 191.5153 35.5605 191.4782 35.1612 Z" fill="#ffffff"/>
				<path d="M 198.3152 41.1536 C 196.5136 41.1536 195.3288 39.8053 195.3288 38.0826 C 195.3288 36.3595 196.5136 35.0112 198.3152 35.0112 C 199.142 35.0112 200.0059 35.4108 200.4994 36.1724 L 200.5241 36.1724 L 200.5241 31.5654 L 201.363 31.5654 L 201.363 41.0039 L 200.5241 41.0039 L 200.5241 40.0174 L 200.4994 40.0174 C 200.0059 40.7543 199.142 41.1536 198.3152 41.1536 ZM 198.4016 40.4296 C 199.6973 40.4296 200.6227 39.4184 200.6227 38.0826 C 200.6227 36.7467 199.6973 35.723 198.4016 35.723 C 197.0072 35.723 196.2174 36.7842 196.2174 38.0826 C 196.2174 39.3809 197.0072 40.4296 198.4016 40.4296 Z" fill="#ffffff"/>
				<path d="M 208.8547 38.3072 L 204.0667 38.3072 C 204.0913 39.4806 204.9924 40.4296 206.1769 40.4296 C 207.0407 40.4296 207.7069 39.9427 208.0278 39.4184 L 208.6573 39.9178 C 207.9784 40.7917 207.1269 41.1536 206.1769 41.1536 C 204.4617 41.1536 203.1905 39.8427 203.1905 38.0826 C 203.1905 36.322 204.4617 35.0112 206.1027 35.0112 C 207.9167 35.0112 208.867 36.3095 208.867 37.9076 C 208.867 38.0201 208.867 38.1572 208.8547 38.3072 ZM 208.0155 37.6329 C 207.966 36.5345 207.2998 35.723 206.1027 35.723 C 204.98 35.723 204.1532 36.6342 204.079 37.6329 L 208.0155 37.6329 Z" fill="#ffffff"/>
				<path d="M 211.4225 35.1612 C 211.4471 35.4733 211.4719 35.9102 211.4719 36.1599 L 211.4966 36.1599 C 211.8172 35.4855 212.6564 35.0112 213.4708 35.0112 C 214.9394 35.0112 215.6674 35.9727 215.6674 37.4207 L 215.6674 41.0039 L 214.8282 41.0039 L 214.8282 37.7704 C 214.8282 36.5467 214.4704 35.723 213.2611 35.723 C 212.3725 35.723 211.509 36.447 211.509 38.0076 L 211.509 41.0039 L 210.6698 41.0039 L 210.6698 36.447 C 210.6698 36.1349 210.6574 35.5605 210.6204 35.1612 L 211.4225 35.1612 Z" fill="#ffffff"/>
				<path d="M 218.3338 41.0786 C 217.9388 41.0786 217.6673 40.7543 217.6673 40.4046 C 217.6673 40.0549 217.9388 39.7306 218.3338 39.7306 C 218.7285 39.7306 219 40.0549 219 40.4046 C 219 40.7543 218.7285 41.0786 218.3338 41.0786 Z" fill="#ffffff"/>
			</g>
		</g>
	</g>
</svg>